<svg width="1000" height="1000" viewBox="0 0 1000 1000" fill="none" xmlns="http://www.w3.org/2000/svg">
<g id="Kibo">
<rect width="1000" height="1000" fill="white" style="fill:white;fill-opacity:1;"/>
<g id="KiboTalk">
<path id="Vector" d="M781.032 434.912C848.786 434.912 875.448 443.695 875.448 526.192C875.448 601.474 863.842 624.686 786.051 624.686C716.414 624.686 686.615 619.668 686.615 534.661C686.615 452.478 700.417 434.912 781.032 434.912ZM733.98 530.584C733.98 577.635 737.431 580.772 783.541 580.772C824.947 580.772 827.77 575.439 827.77 526.819C827.77 479.768 819.928 478.827 778.522 478.827C736.176 478.827 733.98 485.414 733.98 530.584Z" fill="#0A0B0D" style="fill:#0A0B0D;fill:color(display-p3 0.0392 0.0431 0.0510);fill-opacity:1;"/>
<path id="Vector_2" d="M475.022 375H522.387V453.733C529.602 446.205 540.267 434.598 580.104 434.598C649.74 434.598 660.718 467.221 660.718 526.506C660.718 579.203 656.954 625 584.181 625C536.816 625 526.151 610.885 520.505 603.984L518.937 622.177H475.022V375ZM566.615 476.945C528.033 476.945 521.446 483.846 521.446 534.661C521.446 578.262 531.17 582.967 571.007 582.967C611.157 582.967 613.04 570.734 613.04 524.937C613.04 483.846 604.884 476.945 566.615 476.945Z" fill="#0A0B0D" style="fill:#0A0B0D;fill:color(display-p3 0.0392 0.0431 0.0510);fill-opacity:1;"/>
<path id="Vector_3" d="M384.235 375H433.796V418.287H384.235V375ZM385.176 437.422H433.168V622.177H385.176V437.422Z" fill="#0A0B0D" style="fill:#0A0B0D;fill:color(display-p3 0.0392 0.0431 0.0510);fill-opacity:1;"/>
<path id="Vector_4" d="M176.757 492.629L283.72 375H349.906L237.296 494.824L355.238 622.177H287.798L176.757 497.02V622.177H125V375H176.757V492.629Z" fill="#0A0B0D" style="fill:#0A0B0D;fill:color(display-p3 0.0392 0.0431 0.0510);fill-opacity:1;"/>
</g>
</g>
</svg>
